<svg width="62" height="11" viewBox="0 0 62 11" fill="none" xmlns="http://www.w3.org/2000/svg">
<path d="M0.347043 0.281501L0.588243 0.00378665L1.10642 0.00757331L2.06039 0.0145446L2.80277 7.88526L6.88625 5.47965L6.04901 0.0436922L8.62508 0.0625172L8.59032 4.81861L8.57218 7.30135L8.56999 7.60047L8.56781 7.8996L8.56344 8.49785L8.09622 9.00192L7.53352 9.63662L6.41745 9.62846L4.34475 9.61331L2.1724 9.59744L1.08622 9.5895L0.483996 8.91903L0.00887472 8.37389L0.0177 7.16621L0.0353506 4.75086L0.0531471 2.31554L0.0610242 1.23762L0.0656922 0.598848L0.347043 0.281501Z" fill="white"/>
<path d="M46.9287 2.01924L46.3265 7.84312L44.3231 9.90373L38.5274 9.86138L38.5974 0.281555L44.7906 0.326813L46.9287 2.01924ZM40.3013 2.05089L40.2576 8.03803L43.1032 8.05883L44.4794 7.62942L44.7395 6.5141L44.7719 2.08356L40.3013 2.05089Z" fill="white"/>
<path d="M15.2474 2.53428L15.5823 2.80919L15.4963 3.35057L15.3233 4.4343L14.9784 6.60078L15.6141 9.68656L14.2987 9.67695L11.7168 6.84551L10.4902 6.83654L10.4697 9.64897L9.39256 9.6411L9.44678 2.22235L14.891 2.26214L15.2474 2.53428ZM10.5003 5.4606L12.8537 5.4778L13.9907 5.31033L14.203 4.86558L14.2159 3.09512L10.5178 3.06809L10.5003 5.4606Z" fill="white"/>
<path d="M22.3052 2.76459L22.7206 3.24713L22.707 5.10157L22.1017 6.02393L22.6935 6.95602L22.6799 8.81046L22.2573 9.31617L21.8958 9.73249L16.4516 9.6927L16.5059 2.27396L21.95 2.31374L22.3052 2.76459ZM17.7328 6.23127L17.7136 8.86401L20.9596 8.88773L21.1559 8.61963L21.4283 8.23294L21.4379 6.91657L21.1714 6.49566L20.9788 6.25499L17.7328 6.23127ZM17.7411 5.09458L20.9871 5.1183L21.332 4.9714L21.4528 4.87561L21.4636 3.3942L21.3444 3.26637L21.233 3.14641L17.7556 3.121L17.7411 5.09458Z" fill="white"/>
<path d="M29.4551 2.90667L29.7814 3.29871L29.734 9.78975L28.8658 9.78341L28.171 6.63664L25.1203 6.61435L24.3786 9.75062L23.5115 9.74428L23.5589 3.25324L23.9508 2.80687L24.344 2.33122L29.0099 2.36532L29.4551 2.90667ZM25.1119 3.623L25.103 4.83488L25.2813 5.03052L25.4809 5.24097L28.1508 5.26048L28.1596 4.04958L28.0117 3.85415L27.7817 3.64251L25.1119 3.623Z" fill="white"/>
<path d="M33.8003 2.81927L34.1039 3.24044L34.7101 4.08181L35.9235 5.88565L35.9488 2.41601L36.8463 2.42257L36.7954 9.37746L36.6153 9.57049L36.4034 9.83848L35.7901 9.834L35.7948 9.19143L35.2761 8.54407L34.2386 7.2513L32.1651 4.48217L32.1262 9.80722L30.5705 9.79585L30.618 3.30482L31.0404 2.8284L31.4021 2.38279L33.8034 2.40033L33.8003 2.81927Z" fill="white"/>
<path d="M53.624 3.0237L53.9498 3.47531L53.9024 9.96635L48.4592 9.92657L48.044 9.41473L47.6877 8.99317L47.7351 2.50214L53.1793 2.54192L53.624 3.0237ZM49.0141 4.28204L48.2469 6.09582L48.9875 7.91964L50.8013 8.68682L52.6251 7.94622L53.3923 6.13342L52.6517 4.30862L50.8389 3.54145L49.0141 4.28204Z" fill="white"/>
<path d="M60.8054 2.80666L61.0126 3.06306L61.0076 3.73589L56.8203 3.70529L56.8093 5.20135L60.9967 5.23195L60.9617 10.018L55.5175 9.97817L55.1913 9.58613L54.747 9.04478L54.7503 8.59557L58.9377 8.62617L58.9486 7.1311L54.7612 7.1005L54.7944 2.55374L60.6273 2.59637L60.8054 2.80666Z" fill="white"/>
</svg>
